<svg width="25" height="24" viewBox="0 0 25 24" fill="none" xmlns="http://www.w3.org/2000/svg">
<g clip-path="url(#clip0_1291_43340)">
<path d="M7.1903 2.44497C8.3333 3.27797 9.2233 4.41497 9.9833 5.50297L10.4253 6.14697L10.8423 6.76197C11.0509 7.0667 11.1401 7.43752 11.0929 7.80377C11.0456 8.17002 10.8653 8.5061 10.5863 8.74797L8.6353 10.197C8.54104 10.265 8.47469 10.365 8.44857 10.4783C8.42246 10.5916 8.43835 10.7105 8.4933 10.813C8.9353 11.616 9.7213 12.812 10.6213 13.712C11.5223 14.612 12.7743 15.45 13.6333 15.942C13.741 16.0024 13.8678 16.0193 13.9876 15.9892C14.1073 15.9591 14.211 15.8842 14.2773 15.78L15.5473 13.847C15.7808 13.5368 16.1252 13.329 16.5085 13.2672C16.8917 13.2053 17.2841 13.2941 17.6033 13.515L18.2663 13.974C19.5053 14.834 20.8363 15.811 21.8543 17.114C22.0157 17.3218 22.1184 17.5691 22.1517 17.8301C22.1849 18.0912 22.1475 18.3563 22.0433 18.598C21.2063 20.551 19.0883 22.214 16.8853 22.133L16.5853 22.116L16.3523 22.096L16.0943 22.066L15.8133 22.028L15.5083 21.978C15.4549 21.9683 15.4016 21.9583 15.3483 21.948L15.0123 21.876C14.9535 21.8631 14.8949 21.8497 14.8363 21.836L14.4703 21.742L14.0853 21.632L13.6833 21.502C11.8373 20.876 9.4943 19.646 7.0903 17.242C4.6873 14.839 3.4573 12.496 2.8313 10.65L2.7013 10.248L2.5913 9.86297L2.4973 9.49697L2.4193 9.15097C2.39677 9.04261 2.37577 8.93393 2.3563 8.82497L2.3063 8.51997L2.2663 8.23897L2.2373 7.98097L2.2173 7.74797L2.2013 7.44797C2.1203 5.25197 3.8013 3.11897 5.7453 2.28597C5.97927 2.18494 6.2355 2.14647 6.48883 2.17435C6.74216 2.20222 6.98389 2.29548 7.1903 2.44497ZM15.3253 6.03997L15.4413 6.05297C16.1692 6.18137 16.8378 6.53691 17.3512 7.06865C17.8646 7.60039 18.1965 8.28101 18.2993 9.01297C18.336 9.26615 18.2742 9.52375 18.1267 9.73277C17.9792 9.9418 17.7572 10.0864 17.5064 10.1367C17.2556 10.187 16.995 10.1393 16.7783 10.0034C16.5616 9.8675 16.4052 9.65369 16.3413 9.40597L16.3183 9.29097C16.2781 9.00407 16.1556 8.73496 15.9657 8.51616C15.7759 8.29735 15.5267 8.13821 15.2483 8.05797L15.0933 8.02297C14.8422 7.97847 14.6176 7.83971 14.4654 7.63508C14.3132 7.43045 14.245 7.17541 14.2746 6.92212C14.3042 6.66883 14.4295 6.43643 14.6248 6.27245C14.8201 6.10848 15.0707 6.02531 15.3253 6.03997ZM15.3333 2.99997C16.9246 2.99997 18.4507 3.63211 19.5759 4.75733C20.7012 5.88255 21.3333 7.40867 21.3333 8.99997C21.333 9.25485 21.2354 9.5 21.0604 9.68534C20.8855 9.87068 20.6463 9.98221 20.3919 9.99714C20.1375 10.0121 19.8869 9.9293 19.6915 9.76571C19.496 9.60212 19.3704 9.37007 19.3403 9.11697L19.3333 8.99997C19.3337 7.98439 18.9475 7.00673 18.2533 6.2655C17.559 5.52426 16.6087 5.07502 15.5953 5.00897L15.3333 4.99997C15.0681 4.99997 14.8137 4.89461 14.6262 4.70708C14.4387 4.51954 14.3333 4.26519 14.3333 3.99997C14.3333 3.73475 14.4387 3.4804 14.6262 3.29286C14.8137 3.10533 15.0681 2.99997 15.3333 2.99997Z" fill="#21409A"/>
</g>
<defs>
<clipPath id="clip0_1291_43340">
<rect width="24" height="24" fill="white" transform="translate(0.333252)"/>
</clipPath>
</defs>
</svg>
