<svg width="25" height="24" viewBox="0 0 25 24" fill="none" xmlns="http://www.w3.org/2000/svg">
<path d="M2.33325 6C2.33325 5.46957 2.54397 4.96086 2.91904 4.58579C3.29411 4.21071 3.80282 4 4.33325 4H20.3333C20.8637 4 21.3724 4.21071 21.7475 4.58579C22.1225 4.96086 22.3333 5.46957 22.3333 6V18C22.3333 18.5304 22.1225 19.0391 21.7475 19.4142C21.3724 19.7893 20.8637 20 20.3333 20H4.33325C3.80282 20 3.29411 19.7893 2.91904 19.4142C2.54397 19.0391 2.33325 18.5304 2.33325 18V6ZM5.85225 6L12.3333 11.671L18.8143 6H5.85225ZM20.3333 7.329L12.9923 13.753C12.8099 13.9128 12.5757 14.0009 12.3333 14.0009C12.0908 14.0009 11.8566 13.9128 11.6743 13.753L4.33325 7.329V18H20.3333V7.329Z" fill="#21409A"/>
</svg>
