<svg width="21" height="20" viewBox="0 0 21 20" fill="none" xmlns="http://www.w3.org/2000/svg">
<g clip-path="url(#clip0_1922_868)">
<path d="M20.3059 10C20.3059 4.47715 15.8288 0 10.3059 0C4.78306 0 0.305908 4.47715 0.305908 10C0.305908 14.9912 3.96274 19.1283 8.74341 19.8785V12.8906H6.20435V10H8.74341V7.79688C8.74341 5.29063 10.2364 3.90625 12.5206 3.90625C13.6143 3.90625 14.759 4.10156 14.759 4.10156V6.5625H13.4981C12.2559 6.5625 11.8684 7.3334 11.8684 8.125V10H14.6418L14.1985 12.8906H11.8684V19.8785C16.6491 19.1283 20.3059 14.9912 20.3059 10Z" fill="white"/>
</g>
<defs>
<clipPath id="clip0_1922_868">
<rect width="20" height="20" fill="white" transform="translate(0.305908)"/>
</clipPath>
</defs>
</svg>
