<svg width="31" height="31" viewBox="0 0 31 31" fill="none" xmlns="http://www.w3.org/2000/svg">
<path d="M17.0934 0.0018866C18.2244 -0.00240706 19.3555 0.00883855 20.4862 0.0356199L20.7869 0.0463532C21.1341 0.0586198 21.4766 0.0739531 21.8904 0.092353C23.5395 0.169019 24.6648 0.426619 25.6521 0.805351C26.675 1.19482 27.5368 1.72228 28.3985 2.57481C29.1865 3.34087 29.7963 4.26753 30.1856 5.29034C30.5684 6.26707 30.8288 7.3818 30.9063 9.01326C30.9249 9.42112 30.9404 9.76152 30.9528 10.105L30.9621 10.4025C30.9896 11.5205 31.0015 12.639 30.9978 13.7574L30.9993 14.9012V16.9099C31.0031 18.0288 30.9912 19.1478 30.9637 20.2664L30.9544 20.5638C30.942 20.9073 30.9265 21.2462 30.9079 21.6556C30.8304 23.287 30.5669 24.4002 30.1856 25.3769C29.7976 26.4008 29.1876 27.3283 28.3985 28.094C27.6235 28.8734 26.6864 29.4767 25.6521 29.8619C24.6648 30.2407 23.5395 30.4983 21.8904 30.5749C21.4766 30.5933 21.1341 30.6087 20.7869 30.6209L20.4862 30.6301C19.3555 30.6574 18.2245 30.6691 17.0934 30.6654L15.9372 30.6669H13.9083C12.7773 30.6707 11.6463 30.659 10.5156 30.6317L10.2149 30.6225C9.84693 30.6093 9.47908 30.5939 9.11133 30.5765C7.46221 30.4998 6.33697 30.2391 5.34812 29.8619C4.31383 29.4776 3.37699 28.8742 2.60321 28.094C1.81437 27.3278 1.20398 26.4005 0.814603 25.3769C0.431772 24.4002 0.171385 23.287 0.0938894 21.6556C0.0766278 21.2917 0.0611285 20.9278 0.0473919 20.5638L0.0396425 20.2664C0.0110675 19.1478 -0.0018499 18.0288 0.000894305 16.9099V13.7574C-0.00343147 12.639 0.00793582 11.5206 0.0349927 10.4025L0.0458421 10.105C0.0582414 9.76152 0.0737406 9.42112 0.0923396 9.01326C0.169836 7.38026 0.430222 6.2686 0.813052 5.29034C1.20266 4.26702 1.81425 3.34063 2.60476 2.57635C3.37801 1.7955 4.31426 1.19109 5.34812 0.805351C6.33697 0.426619 7.46066 0.169019 9.11133 0.092353L10.2149 0.0463532L10.5156 0.0386867C11.6457 0.0104318 12.7762 -0.0023473 13.9068 0.000353383L17.0934 0.0018866ZM15.5001 7.66853C14.4733 7.65416 13.4538 7.84183 12.501 8.22063C11.5481 8.59943 10.6808 9.16181 9.94959 9.87507C9.21834 10.5883 8.63767 11.4383 8.24134 12.3755C7.845 13.3127 7.6409 14.3185 7.6409 15.3344C7.6409 16.3503 7.845 17.3561 8.24134 18.2933C8.63767 19.2305 9.21834 20.0805 9.94959 20.7937C10.6808 21.507 11.5481 22.0694 12.501 22.4482C13.4538 22.827 14.4733 23.0147 15.5001 23.0003C17.5554 23.0003 19.5266 22.1926 20.9799 20.7548C22.4332 19.317 23.2497 17.367 23.2497 15.3336C23.2497 13.3003 22.4332 11.3503 20.9799 9.91251C19.5266 8.47473 17.5554 7.66853 15.5001 7.66853ZM15.5001 10.7352C16.1178 10.7239 16.7315 10.8345 17.3054 11.0606C17.8794 11.2866 18.4021 11.6235 18.8429 12.0516C19.2838 12.4797 19.634 12.9905 19.8731 13.554C20.1122 14.1175 20.2354 14.7225 20.2355 15.3336C20.2356 15.9448 20.1126 16.5498 19.8737 17.1134C19.6348 17.677 19.2848 18.1878 18.844 18.6161C18.4033 19.0443 17.8808 19.3814 17.3069 19.6076C16.733 19.8339 16.1193 19.9447 15.5016 19.9336C14.2685 19.9336 13.0858 19.449 12.2138 18.5863C11.3418 17.7237 10.8519 16.5536 10.8519 15.3336C10.8519 14.1136 11.3418 12.9436 12.2138 12.081C13.0858 11.2183 14.2685 10.7337 15.5016 10.7337L15.5001 10.7352ZM23.6372 5.36854C23.1372 5.38834 22.6643 5.59877 22.3176 5.95576C21.9709 6.31275 21.7773 6.78861 21.7773 7.28366C21.7773 7.77872 21.9709 8.25458 22.3176 8.61157C22.6643 8.96856 23.1372 9.17899 23.6372 9.19879C24.151 9.19879 24.6438 8.99686 25.0071 8.63742C25.3705 8.27797 25.5746 7.79046 25.5746 7.28213C25.5746 6.7738 25.3705 6.28629 25.0071 5.92685C24.6438 5.5674 24.151 5.36547 23.6372 5.36547V5.36854Z" fill="#526077"/>
</svg>
