<svg width="33" height="26" viewBox="0 0 33 26" fill="none" xmlns="http://www.w3.org/2000/svg">
<path d="M16.9034 0.967773C17.7846 0.972411 19.9891 0.992507 22.3322 1.08062L23.1639 1.11463C25.5218 1.2182 27.8781 1.39752 29.0481 1.70205C30.6074 2.11324 31.8317 3.30973 32.2459 4.82774C32.9059 7.23926 32.9884 11.9417 32.9983 13.081L33 13.316V13.5849C32.9884 14.7242 32.9059 19.4282 32.2459 21.8382C31.8268 23.3609 30.6008 24.5589 29.0481 24.9639C27.8781 25.2684 25.5218 25.4478 23.1639 25.5513L22.3322 25.5869C19.9891 25.6734 17.7846 25.6951 16.9034 25.6982L16.5157 25.6997H16.0949C14.2303 25.6889 6.43202 25.6101 3.9503 24.9639C2.39262 24.5527 1.16661 23.3562 0.752438 21.8382C0.0924048 19.4267 0.00990049 14.7242 0 13.5849V13.081C0.00990049 11.9417 0.0924048 7.23771 0.752438 4.82774C1.17156 3.30509 2.39757 2.10706 3.95195 1.70359C6.43202 1.05589 14.232 0.977048 16.0966 0.967773H16.9034ZM13.199 7.92407V18.745L23.0995 13.3345L13.199 7.92407Z" fill="#526077"/>
</svg>
