<svg width="21" height="20" viewBox="0 0 21 20" fill="none" xmlns="http://www.w3.org/2000/svg">
<path d="M20.1084 10.2298C20.1084 9.54998 20.0533 8.86653 19.9357 8.19778H10.5034V12.0486H15.9049C15.6807 13.2906 14.9605 14.3892 13.906 15.0874V17.586H17.1285C19.0208 15.8443 20.1084 13.2722 20.1084 10.2298Z" fill="#4285F4"/>
<path d="M10.5036 20.0005C13.2007 20.0005 15.4752 19.115 17.1323 17.5864L13.9098 15.0878C13.0133 15.6977 11.8558 16.0431 10.5073 16.0431C7.89845 16.0431 5.68644 14.2831 4.89276 11.9167H1.56738V14.4925C3.26498 17.8693 6.72263 20.0005 10.5036 20.0005Z" fill="#34A853"/>
<path d="M4.88936 11.9168C4.47047 10.6748 4.47047 9.32998 4.88936 8.08802V5.51224H1.56766C0.149322 8.33788 0.149322 11.6669 1.56766 14.4926L4.88936 11.9168Z" fill="#FBBC04"/>
<path d="M10.5036 3.95805C11.9293 3.936 13.3072 4.47247 14.3398 5.45722L17.1948 2.60218C15.387 0.904587 12.9876 -0.0287217 10.5036 0.000673888C6.72263 0.000673888 3.26498 2.13185 1.56738 5.51234L4.88908 8.08813C5.67909 5.71811 7.89478 3.95805 10.5036 3.95805Z" fill="#EA4335"/>
</svg>
