<svg width="25" height="24" viewBox="0 0 25 24" fill="none" xmlns="http://www.w3.org/2000/svg">
<path fill-rule="evenodd" clip-rule="evenodd" d="M17.8863 16.106C18.1053 15.9964 18.3569 15.9711 18.5934 16.0346C18.8299 16.0982 19.0348 16.2464 19.1693 16.451L19.2273 16.553L21.2273 20.553C21.2987 20.6956 21.3349 20.8533 21.3329 21.0128C21.3309 21.1723 21.2908 21.329 21.216 21.4698C21.1411 21.6106 21.0336 21.7315 20.9025 21.8224C20.7714 21.9132 20.6205 21.9714 20.4623 21.992L20.3333 22H4.33333C4.1738 22.0001 4.01657 21.9619 3.87478 21.8888C3.73298 21.8157 3.61073 21.7098 3.51824 21.5798C3.42575 21.4498 3.36569 21.2996 3.34309 21.1417C3.32049 20.9837 3.336 20.8227 3.38833 20.672L3.43833 20.552L5.43833 16.552C5.55043 16.3203 5.74755 16.1407 5.98869 16.0507C6.22982 15.9606 6.49639 15.967 6.73292 16.0686C6.96945 16.1701 7.15773 16.3589 7.25857 16.5957C7.35942 16.8325 7.36506 17.0991 7.27433 17.34L7.22733 17.447L5.95133 20H18.7153L17.4393 17.447C17.3209 17.2099 17.3015 16.9354 17.3853 16.684C17.4691 16.4325 17.6493 16.2246 17.8863 16.106ZM12.3333 2C14.1898 2 15.9703 2.7375 17.2831 4.05025C18.5958 5.36301 19.3333 7.14348 19.3333 9C19.3333 11.382 18.0443 13.317 16.7103 14.69C15.9734 15.4384 15.1634 16.1111 14.2923 16.698L13.9193 16.944L13.5873 17.153C13.5353 17.184 13.4853 17.213 13.4383 17.243L13.1813 17.391C12.6533 17.691 12.0133 17.691 11.4853 17.391L11.2283 17.242L10.9183 17.053C10.8611 17.017 10.8041 16.9807 10.7473 16.944L10.3743 16.698C9.50327 16.1111 8.69322 15.4384 7.95633 14.69C6.62233 13.317 5.33333 11.382 5.33333 9C5.33333 7.14348 6.07083 5.36301 7.38358 4.05025C8.69634 2.7375 10.4768 2 12.3333 2ZM12.3333 7C11.8029 7 11.2942 7.21071 10.9191 7.58579C10.544 7.96086 10.3333 8.46957 10.3333 9C10.3333 9.53043 10.544 10.0391 10.9191 10.4142C11.2942 10.7893 11.8029 11 12.3333 11C12.8638 11 13.3725 10.7893 13.7475 10.4142C14.1226 10.0391 14.3333 9.53043 14.3333 9C14.3333 8.46957 14.1226 7.96086 13.7475 7.58579C13.3725 7.21071 12.8638 7 12.3333 7Z" fill="#21409A"/>
</svg>
