<svg width="72" height="66" viewBox="0 0 72 66" fill="none" xmlns="http://www.w3.org/2000/svg">
<path d="M52.201 26.3396C52.201 17.9111 45.1185 11.0552 36.4106 11.0552C27.7026 11.0552 20.6191 17.9111 20.6191 26.3432C20.6221 26.764 20.8416 36.8474 33.4894 54.6146C33.7498 55.1018 34.1443 55.5191 34.6346 55.8258C35.1248 56.1326 35.694 56.3182 36.2865 56.3645C38.1134 56.3645 39.3586 54.5314 39.4797 54.345C52.208 36.5669 52.208 26.7404 52.201 26.3396ZM36.4106 32.4951C35.0196 32.4951 33.6598 32.1192 32.5032 31.415C31.3466 30.7107 30.4452 29.7097 29.913 28.5386C29.3807 27.3675 29.2415 26.0788 29.5129 24.8356C29.7844 23.5924 30.4543 22.4504 31.4379 21.5541C32.4216 20.6579 33.6748 20.0475 35.0391 19.8004C36.4034 19.5532 37.8176 19.6802 39.1026 20.1654C40.3877 20.6506 41.486 21.4722 42.2587 22.5263C43.0313 23.5804 43.4436 24.8195 43.4434 26.0871C43.4413 27.7862 42.6997 29.4151 41.3812 30.6165C40.0627 31.8178 38.2751 32.4935 36.4106 32.4951Z" fill="#D22F27"/>
<path d="M52.2008 26.3396C52.2008 17.9111 45.1183 11.0552 36.4104 11.0552C35.1139 11.0603 33.8237 11.22 32.5728 11.5302C40.9083 11.9374 47.5659 18.6087 47.5659 26.7766C47.5718 27.1775 47.5718 37.0039 34.8436 54.7811C34.6723 55.036 34.4776 55.2773 34.2617 55.5022C34.5175 55.7638 34.8289 55.9751 35.1771 56.1235C35.5254 56.2719 35.9031 56.3542 36.2873 56.3654C38.1133 56.3654 39.3584 54.5314 39.4795 54.345C52.2078 36.5669 52.2078 26.7404 52.2008 26.3396Z" fill="#EA5A47"/>
<path d="M36.2865 56.3654C35.6939 56.319 35.1247 56.1332 34.6344 55.8264C34.1442 55.5195 33.7496 55.102 33.4894 54.6146C20.8416 36.8474 20.6221 26.7649 20.6191 26.3432C20.6191 17.9102 27.7026 11.0552 36.4106 11.0552C45.1185 11.0552 52.201 17.9111 52.201 26.3396C52.208 26.7413 52.208 36.5678 39.4797 54.3441C39.3586 54.5314 38.1124 56.3654 36.2865 56.3654Z" stroke="black" stroke-width="2" stroke-linecap="round" stroke-linejoin="round"/>
<path d="M36.4108 32.4952C35.0198 32.4952 33.66 32.1193 32.5034 31.415C31.3469 30.7107 30.4455 29.7097 29.9132 28.5386C29.3809 27.3675 29.2417 26.0788 29.5131 24.8356C29.7846 23.5924 30.4545 22.4504 31.4382 21.5541C32.4218 20.6579 33.6751 20.0476 35.0394 19.8004C36.4037 19.5532 37.8178 19.6802 39.1029 20.1654C40.3879 20.6507 41.4862 21.4723 42.2589 22.5263C43.0316 23.5804 43.4439 24.8196 43.4437 26.0872C43.4416 27.7862 42.6999 29.4152 41.3814 30.6165C40.0629 31.8178 38.2753 32.4935 36.4108 32.4952Z" stroke="black" stroke-width="2" stroke-linecap="round" stroke-linejoin="round"/>
</svg>
