<svg width="18" height="18" viewBox="0 0 18 18" fill="none" xmlns="http://www.w3.org/2000/svg">
<path d="M1.71729 5.835V13.1325C1.71729 14.5575 2.72979 15.1425 3.95979 14.4375L5.72229 13.4325C6.10479 13.215 6.74229 13.1925 7.13979 13.395L11.0773 15.3675C11.4748 15.5625 12.1123 15.5475 12.4948 15.33L15.7423 13.47C16.1548 13.23 16.4998 12.645 16.4998 12.165V4.8675C16.4998 3.4425 15.4873 2.8575 14.2573 3.5625L12.4948 4.5675C12.1123 4.785 11.4748 4.8075 11.0773 4.605L7.13979 2.64C6.74229 2.445 6.10479 2.46 5.72229 2.6775L2.47479 4.5375C2.05479 4.7775 1.71729 5.3625 1.71729 5.835Z" stroke="#233E85" stroke-width="1.5" stroke-linecap="round" stroke-linejoin="round"/>
<path d="M6.41992 3V12.75" stroke="#233E85" stroke-width="1.5" stroke-linecap="round" stroke-linejoin="round"/>
<path d="M11.7974 4.965V15" stroke="#233E85" stroke-width="1.5" stroke-linecap="round" stroke-linejoin="round"/>
</svg>
